<?xml version="1.0" encoding="UTF-8" ?>
<!DOCTYPE svg PUBLIC "-//W3C//DTD SVG 1.1//EN" "http://www.w3.org/Graphics/SVG/1.1/DTD/svg11.dtd">
<svg width="470pt" height="360pt" viewBox="0 0 470 360" version="1.1" xmlns="http://www.w3.org/2000/svg">
<g id="#475569ff">
<path fill="#475569" opacity="1.00" d=" M 43.62 0.00 L 425.06 0.00 C 437.29 0.78 449.45 6.04 457.79 15.16 C 464.56 22.44 469.02 32.04 469.50 42.02 C 469.49 134.35 469.51 226.69 469.50 319.02 C 468.21 337.73 453.52 354.12 435.48 358.58 C 424.81 360.21 413.91 359.37 403.19 360.00 L 44.61 360.00 C 22.49 359.79 1.97 341.29 0.51 319.05 C 0.49 227.70 0.51 136.36 0.50 45.02 C 0.12 35.43 3.69 25.95 9.47 18.39 C 17.50 7.63 30.47 1.49 43.62 0.00 M 26.51 18.47 C 17.59 24.57 11.97 35.15 11.99 45.97 C 12.01 135.98 11.99 226.00 12.00 316.02 C 12.52 332.70 27.30 347.45 43.96 348.00 C 147.91 347.98 251.87 348.04 355.82 347.97 C 358.84 350.99 362.31 354.71 367.00 354.27 C 371.23 354.21 374.16 350.74 376.90 347.97 C 392.94 348.03 408.98 348.00 425.02 348.00 C 439.13 347.91 452.33 337.90 456.44 324.44 C 458.46 318.51 457.95 312.18 458.00 306.03 C 458.01 219.01 457.99 131.99 458.01 44.98 C 457.76 27.78 442.39 12.28 425.04 12.52 C 298.69 12.47 172.34 12.52 45.99 12.50 C 39.07 12.45 32.15 14.43 26.51 18.47 Z" />
</g>
<g id="#090d16ff">
<path fill="#090d16" opacity="1.00" d=" M 26.51 18.47 C 32.15 14.43 39.07 12.45 45.99 12.50 C 172.34 12.52 298.69 12.47 425.04 12.52 C 442.39 12.28 457.76 27.78 458.01 44.98 C 457.99 131.99 458.01 219.01 458.00 306.03 C 457.95 312.18 458.46 318.51 456.44 324.44 C 452.33 337.90 439.13 347.91 425.02 348.00 C 408.98 348.00 392.94 348.03 376.90 347.97 C 395.89 329.21 414.47 310.07 433.32 291.18 C 437.32 288.28 440.63 284.55 443.75 280.75 C 447.24 278.07 447.71 273.21 446.61 269.28 C 444.22 262.74 435.00 261.35 430.35 266.30 C 410.18 286.50 389.89 306.59 369.78 326.86 C 368.66 327.87 367.72 329.29 366.14 329.54 C 357.58 321.56 349.60 312.97 341.20 304.82 C 338.63 302.47 335.09 302.95 331.89 303.03 C 328.73 304.22 326.35 306.82 325.03 309.90 C 324.46 312.75 325.30 315.79 326.69 318.30 C 335.82 328.74 346.48 337.72 355.82 347.97 C 251.87 348.04 147.91 347.98 43.96 348.00 C 27.30 347.45 12.52 332.70 12.00 316.02 C 11.99 226.00 12.01 135.98 11.99 45.97 C 11.97 35.15 17.59 24.57 26.51 18.47 M 53.88 146.04 C 52.86 149.04 53.70 152.74 56.16 154.80 C 71.23 166.14 87.07 176.45 102.00 187.98 C 100.30 190.31 97.59 191.61 95.32 193.31 C 82.51 202.51 69.62 211.61 56.84 220.86 C 53.42 223.22 52.52 228.06 54.32 231.70 C 56.60 235.32 61.87 236.72 65.56 234.53 C 84.32 221.32 102.91 207.88 121.61 194.61 C 125.88 191.29 125.57 183.99 120.92 181.14 C 103.42 168.65 85.94 156.14 68.44 143.65 C 66.75 142.48 65.12 140.98 63.00 140.70 C 59.22 139.71 54.83 142.22 53.88 146.04 M 144.32 220.31 C 137.63 223.28 139.47 235.31 147.06 235.47 C 171.03 235.54 195.00 235.47 218.97 235.51 C 221.70 235.69 224.57 234.43 226.11 232.13 C 229.15 227.53 226.38 220.56 220.88 219.53 C 196.92 219.46 172.95 219.53 148.99 219.49 C 147.41 219.46 145.77 219.68 144.32 220.31 Z" />
</g>
<g id="#38bdf8ff">
<path fill="#38bdf8" opacity="1.00" d=" M 53.88 146.04 C 54.83 142.22 59.22 139.71 63.00 140.70 C 65.12 140.98 66.75 142.48 68.44 143.65 C 85.94 156.14 103.42 168.65 120.92 181.14 C 125.57 183.99 125.88 191.29 121.61 194.61 C 102.91 207.88 84.32 221.32 65.56 234.53 C 61.87 236.72 56.60 235.32 54.32 231.70 C 52.52 228.06 53.42 223.22 56.84 220.86 C 69.62 211.61 82.51 202.51 95.32 193.31 C 97.59 191.61 100.30 190.31 102.00 187.98 C 87.07 176.45 71.23 166.14 56.16 154.80 C 53.70 152.74 52.86 149.04 53.88 146.04 Z" />
<path fill="#38bdf8" opacity="1.00" d=" M 144.32 220.31 C 145.77 219.68 147.41 219.46 148.99 219.49 C 172.95 219.53 196.92 219.46 220.88 219.53 C 226.38 220.56 229.15 227.53 226.11 232.13 C 224.57 234.43 221.70 235.69 218.97 235.51 C 195.00 235.47 171.03 235.54 147.06 235.47 C 139.47 235.31 137.63 223.28 144.32 220.31 Z" />
</g>
<g id="#22c55eff">
<path fill="#22c55e" opacity="1.00" d=" M 430.35 266.30 C 435.00 261.35 444.22 262.74 446.61 269.28 C 447.71 273.21 447.24 278.07 443.75 280.75 C 440.63 284.55 437.32 288.28 433.32 291.18 C 414.47 310.07 395.89 329.21 376.90 347.97 C 374.16 350.74 371.23 354.21 367.00 354.27 C 362.31 354.71 358.84 350.99 355.82 347.97 C 346.48 337.72 335.82 328.74 326.69 318.30 C 325.30 315.79 324.46 312.75 325.03 309.90 C 326.35 306.82 328.73 304.22 331.89 303.03 C 335.09 302.95 338.63 302.47 341.20 304.82 C 349.60 312.97 357.58 321.56 366.14 329.54 C 367.72 329.29 368.66 327.87 369.78 326.86 C 389.89 306.59 410.18 286.50 430.35 266.30 Z" />
</g>
</svg>
